<?xml version="1.0" encoding="UTF-8"?>
<svg id="Layer_1" xmlns="http://www.w3.org/2000/svg" viewBox="0 0 2255.42 2038.55">
  <defs>
    <style>
      .cls-1 {
        fill: none;
        stroke-width: 18.34px;
      }

      .cls-1, .cls-2, .cls-3, .cls-4, .cls-5, .cls-6, .cls-7, .cls-8 {
        stroke: #f06c6c;
      }

      .cls-1, .cls-2, .cls-3, .cls-7, .cls-8 {
        stroke-miterlimit: 10;
      }

      .cls-1, .cls-2, .cls-4, .cls-5, .cls-6 {
        stroke-linecap: round;
      }

      .cls-2, .cls-3, .cls-4, .cls-5, .cls-6, .cls-7, .cls-8 {
        fill: #F0F0F0;
      }

      .cls-2, .cls-5 {
        stroke-width: 30px;
      }

      .cls-9 {
        fill: #f06c6c;
      }

      .cls-3 {
        stroke-width: 15px;
      }

      .cls-4 {
        stroke-width: 20px;
      }

      .cls-4, .cls-5, .cls-6 {
        stroke-linejoin: round;
      }

      .cls-6 {
        stroke-width: 25px;
      }

      .cls-7 {
        stroke-width: 7.34px;
      }

      .cls-8 {
        stroke-width: 5.44px;
      }
    </style>
  </defs>
  <path class="cls-6" d="M940.21,856.45c-55.51-167-6.1-335.24,145.38-396.09,162.7-65.36,359.75-10.42,406.53,205.94,43.95,203.25-19.14,393.42-166.98,436.62-100.06,29.24-253.39-17.54-327.39-191.87"/>
  <path class="cls-5" d="M1096.63,578.3s157.15,106.98,354.88-90.01c0,0-26.56-109.93-230.19-102.55-202,7.32-202.9,104.03-202.9,104.03l78.21,88.54Z"/>
  <path class="cls-5" d="M1018.42,489.76s-91.49-14.02-127.64,87.8c-36.15,101.82,36.32,191.41,55.86,197.47,115.62,35.89,147.04-119.26,144.09-179.03-2.95-59.76-72.3-106.24-72.3-106.24Z"/>
  <path class="cls-3" d="M1756.92,782.88c4.63,34,.25,38.86-.52,54.99-.09,1.88.41,3.73,1.42,5.32,1.2,1.88,3.61,5.64,4.81,7.52,4.95,7.74,14.71,18.13,15.74,8.99,1.2-10.71,5.07-45.11,4.33-55.16-.59-8.01-3.74-22.97-4.85-30.93-2.92-20.86-23.48-9.46-20.93,9.27Z"/>
  <path class="cls-3" d="M1718.8,724.74c13.17,5.09,27.77,34.49,33.56,52.4,4.14,12.8,10.96,44.2,10.96,44.2,2.07,6.17-5.03,2.32-12.3-4.14l-14.16-5.04c-3.6-.29-6.69-2.7-7.85-6.13-4.37-12.96-20.69-51.97-25.2-60.19-6.31-11.48,5.14-24.91,14.98-21.1Z"/>
  <path class="cls-3" d="M1648.63,726.67c15.1,6.33,29.3,8,58.85,36.65,8.78,8.51,40.21,48.16,40.21,48.16,6.3,5.67-7.09,2.2-15.56,1.88l-36.01-1.36c-3.47-.13-6.13-14.75-18.53-29.04-13.84-15.96-33.17-18.02-41.01-32.16-6.3-11.35-1.05-29.61,12.04-24.13Z"/>
  <path class="cls-1" d="M1323.13,652.08s5.16,39.1,62.71,43.53c68.42,5.26,84.11,11.07,87.47,44.63,4.29,42.89-56,40.12-100.31,49.61-35.76,7.66-40.64,37.56-29.33,60.01,9.92,19.68,41.92,25.47,77.19,23.68,40.13-2.03,57.86-15.49,57.14-1.36-1.33,26.35-34.88,43.95-68.23,53.56-24.83,7.15-18.5,25.5,5.52,21.49,35.61-5.94,59.22,17.98,46.94,32.89-12.28,14.91-24.26,1.47-63.95,9.81-51.55,10.83-59.37,54.37-62.37,70.71"/>
  <path class="cls-1" d="M1389.92,659.32c10.47-12.13,42.73-38.02,87.56-27.2"/>
  <path class="cls-1" d="M1133.51,796.63c3.31-6.33,37.01-95.12,163.9-95.67"/>
  <path class="cls-2" d="M1001.85,777.43s-79.68-38.37-87.06,35.41c-6.52,65.2,42.05,138.71,107.72,66.4"/>
  <path class="cls-4" d="M1391.84,1351.17c71.72,42.88,250.82,74.06,362.67,15.59,140.14-73.25,112.86-243.05,101.83-304.77-7.62-42.58-30.43-115.68-48.08-155.17-16.59-37.1-27.32-55.14-27.32-55.14-13.79-22.18-53.1-66.02-133.42-41.76-10.79,3.26-34.94,12.17-42.96,27.31-4.26,8.03-.7,18.78,8.11,21.01,14.64,3.7,31.68-9.2,48.18-16.3,42.14-18.14,55.41,44.09,37.21,58.29-14.34,11.18-32.39,23.23-59.1,2.3-13.09-10.26-14.54-21.92-26.08-21.54-6.28.2-11.7,4.63-13.98,9.87-5.61,12.85,10.35,26.54,21.46,38.46,61.27,65.72,67.7,60.41,126.1,62.33,0,0,35.17,13.67,35.82,87.11.28,31.1-26.58,181.14-131.34,163.84-76.35-12.6-146.77-132.25-241.87-135.45"/>
  <path class="cls-7" d="M1516.39,941.22s16.52,3.49,29.7,10.72c22.98,12.61-1.87,42.55-16.14,20.76-9.03-13.8-13.56-31.48-13.56-31.48Z"/>
  <path class="cls-8" d="M1521.8,915.39s4.8-11.56,11.88-20.18c12.33-15.02,30.76,7.19,12.92,14.6-11.3,4.7-24.8,5.58-24.8,5.58Z"/>
  <g>
    <path class="cls-9" d="M211.63,1379.78l-60-420h150l15,221.4c3.6,49.8,6.6,99.6,10.2,149.4h4.8c0-51.6,6.6-115.2,13.2-162l28.8-208.8h135.6l28.2,208.2c6.6,46.8,13.2,111,13.2,162.6h5.4c3.6-50.4,6.6-100.2,10.2-150.6l14.4-220.2h150l-60,420h-190.2l-30.6-235.2c-4.8-37.2-5.4-52.2-5.4-76.2h-6.6c0,24-.6,39.6-5.4,76.2l-30.6,235.2h-190.2Z"/>
    <path class="cls-9" d="M716.83,1199.17c0-103.2,74.4-186.6,186-186.6,91.8,0,169.8,53.4,169.8,152.4,0,14.4-1.8,29.4-4.8,45.6l-222-10.2c4.8,42,42.6,58.2,87,58.2s83.4-12.6,115.2-35.4h7.8v132.6c-28.2,17.4-77.4,31.2-136.2,31.2-123,0-202.8-82.2-202.8-187.8ZM952.03,1162.58c-6-18-23.4-28.8-47.4-28.8-22.2,0-43.8,10.8-54,34.2l101.4-5.4Z"/>
    <path class="cls-9" d="M258.44,1843.78v-303h-108v-117h358.8v117h-108.6v303h-142.2Z"/>
    <path class="cls-9" d="M485.23,1749.58c0-91.2,91.8-117.6,174.6-117.6,21.6,0,43.2,1.8,61.8,4.8v-5.4c-9.6-19.2-38.4-26.4-71.4-26.4-43.2,0-91.2,17.4-122.4,40.2h-7.8v-136.2c34.2-16.2,88.8-32.4,148.8-32.4,118.2,0,191.4,68.4,191.4,173.4v193.8h-136.2v-11.4l17.4-146.4h-6.6c-3.6,114-54.6,165-133.8,165-61.2,0-115.8-28.8-115.8-101.4ZM710.84,1685.38h-26.4c-54,0-68.4,21-68.4,39s16.2,26.4,34.8,26.4c35.4,0,57-28.8,60-65.4Z"/>
    <path class="cls-9" d="M883.63,1819.78v-145.2h9c50.4,50.4,105.6,57,139.8,57,21.6,0,35.4-4.8,35.4-13.2,0-22.8-189.6,1.2-189.6-127.2,0-78,77.4-114.6,160.2-114.6,60,0,111.6,18.6,144,36v127.8h-7.8c-34.8-30.6-90-51-143.4-51-23.4,0-37.8,4.2-37.8,14.4,0,28.2,210,1.2,210,123.6,0,87-74.4,123.6-175.2,123.6-39.6,0-91.8-4.8-144.6-31.2Z"/>
    <path class="cls-9" d="M1238.83,1728.58v-160.2h-38.4v-80.4c48.6,0,73.2-15.6,73.2-64.2h106.8v60h61.8v96l-61.8-9.6v114.6c0,24.6,6.6,41.4,30,41.4,11.4,0,18.6-6,24.6-15h7.2v109.8c-22.2,20.4-51.6,30-87.6,30-74.4,0-115.8-50.4-115.8-122.4Z"/>
    <path class="cls-9" d="M1454.22,1663.17c0-103.2,74.4-186.6,186-186.6,91.8,0,169.8,53.4,169.8,152.4,0,14.4-1.8,29.4-4.8,45.6l-222-10.2c4.8,42,42.6,58.2,87,58.2s83.4-12.6,115.2-35.4h7.8v132.6c-28.2,17.4-77.4,31.2-136.2,31.2-123,0-202.8-82.2-202.8-187.8ZM1689.43,1626.58c-6-18-23.4-28.8-47.4-28.8-22.2,0-43.8,10.8-54,34.2l101.4-5.4Z"/>
  </g>
</svg>
